<svg xmlns="http://www.w3.org/2000/svg" width="24" height="24" viewBox="0 0 24 24">
  <g id="cardiology" transform="translate(-23.999 -24)">
    <path id="Path_948" data-name="Path 948" d="M46.222,26.072a5.477,5.477,0,0,0-8.58,0L36,27.988l-1.642-1.916a5.477,5.477,0,0,0-8.58,0,7.931,7.931,0,0,0,0,10.006l1.729,2.016L36,48l8.494-9.906,1.729-2.016A7.931,7.931,0,0,0,46.222,26.072Z" transform="translate(0 0)" fill="#ff5264"/>
    <path id="Path_949" data-name="Path 949" d="M186.483,183.448v-2.483H184v-2.483h2.483V176h2.483v2.483h2.483v2.483h-2.483v2.483Z" transform="translate(-151.725 -144.138)" fill="#fff"/>
    <path id="Path_950" data-name="Path 950" d="M364.966,54.207a.414.414,0,0,1-.414-.414c0-2.738-1.856-4.966-4.138-4.966a.414.414,0,0,1,0-.828c2.738,0,4.966,2.6,4.966,5.793A.414.414,0,0,1,364.966,54.207Z" transform="translate(-318.621 -22.759)" fill="#5f73fc"/>
  </g>
</svg>
