<svg xmlns="http://www.w3.org/2000/svg" width="110" height="78.957" viewBox="0 0 110 78.957">
  <g id="Group_1098" data-name="Group 1098" transform="translate(-3161.757 -1679.732)">
    <path id="Path_2326" data-name="Path 2326" d="M437.852,380.929h-98.19a5.912,5.912,0,0,1-5.9-5.9V316.313a5.912,5.912,0,0,1,5.9-5.9h98.19a5.911,5.911,0,0,1,5.9,5.9v58.712A5.912,5.912,0,0,1,437.852,380.929Zm-98.19-69.509a4.9,4.9,0,0,0-4.893,4.893v58.712a4.9,4.9,0,0,0,4.893,4.893h98.19a4.9,4.9,0,0,0,4.893-4.893V316.313a4.9,4.9,0,0,0-4.893-4.893Z" transform="translate(2828 1377.76)" fill="#3f3d56"/>
    <path id="Path_2327" data-name="Path 2327" d="M381.975,334.843a4.218,4.218,0,1,1,4.218-4.218A4.218,4.218,0,0,1,381.975,334.843Zm0-7.423a3.205,3.205,0,1,0,3.206,3.206A3.205,3.205,0,0,0,381.975,327.42Z" transform="translate(2798.845 1367.159)" fill="#3f3d56"/>
    <path id="Path_2328" data-name="Path 2328" d="M592.975,334.843a4.218,4.218,0,1,1,4.218-4.218A4.218,4.218,0,0,1,592.975,334.843Zm0-7.423a3.205,3.205,0,1,0,3.206,3.206A3.205,3.205,0,0,0,592.975,327.42Z" transform="translate(2659.042 1367.159)" fill="#3f3d56"/>
    <path id="Path_2329" data-name="Path 2329" d="M378.346,394.942H360.125a2.871,2.871,0,0,1-2.868-2.868v-10.8a2.872,2.872,0,0,1,2.868-2.868h18.221a2.872,2.872,0,0,1,2.868,2.868v10.8A2.872,2.872,0,0,1,378.346,394.942Z" transform="translate(2812.43 1332.705)" fill="#e6e6e6"/>
    <path id="Path_2330" data-name="Path 2330" d="M482.346,394.942H464.125a2.872,2.872,0,0,1-2.868-2.868v-10.8a2.872,2.872,0,0,1,2.868-2.868h18.221a2.872,2.872,0,0,1,2.868,2.868v10.8A2.871,2.871,0,0,1,482.346,394.942Z" transform="translate(2743.522 1332.705)" fill="#e6e6e6"/>
    <path id="Path_2331" data-name="Path 2331" d="M568.788,379.408a2.534,2.534,0,0,0-2.531,2.531v10.8a2.534,2.534,0,0,0,2.531,2.531h18.221a2.534,2.534,0,0,0,2.531-2.531v-10.8a2.534,2.534,0,0,0-2.531-2.531Z" transform="translate(2673.95 1332.042)" fill="#e6e6e6"/>
    <path id="Path_2332" data-name="Path 2332" d="M378.846,458.941H360.625a2.872,2.872,0,0,1-2.868-2.868v-10.8a2.872,2.872,0,0,1,2.868-2.868h18.221a2.872,2.872,0,0,1,2.868,2.868v10.8A2.872,2.872,0,0,1,378.846,458.941Z" transform="translate(2812.096 1290.3)" fill="#e6e6e6"/>
    <path id="Path_2333" data-name="Path 2333" d="M482.846,458.941H464.626a2.872,2.872,0,0,1-2.868-2.868v-10.8a2.872,2.872,0,0,1,2.868-2.868h18.221a2.872,2.872,0,0,1,2.868,2.868v10.8A2.872,2.872,0,0,1,482.846,458.941Z" transform="translate(2743.191 1290.3)" fill="#e6e6e6"/>
    <path id="Path_2334" data-name="Path 2334" d="M586.846,458.941H568.625a2.872,2.872,0,0,1-2.868-2.868v-10.8a2.872,2.872,0,0,1,2.868-2.868h18.221a2.872,2.872,0,0,1,2.868,2.868v10.8A2.872,2.872,0,0,1,586.846,458.941Z" transform="translate(2674.281 1290.3)" fill="#e6e6e6"/>
    <path id="Path_2335" data-name="Path 2335" d="M387.938,304.641a1.182,1.182,0,0,1-1.181-1.181V286.589a1.181,1.181,0,1,1,2.362,0V303.46A1.182,1.182,0,0,1,387.938,304.641Z" transform="translate(2792.883 1394.324)" fill="#3f3d56"/>
    <path id="Path_2336" data-name="Path 2336" d="M598.938,304.641a1.182,1.182,0,0,1-1.181-1.181V286.589a1.181,1.181,0,1,1,2.362,0V303.46A1.183,1.183,0,0,1,598.938,304.641Z" transform="translate(2653.079 1394.324)" fill="#3f3d56"/>
    <path id="Path_395" data-name="Path 395" d="M376,382.9a2.292,2.292,0,0,1-1.378-.458l-.025-.019-5.19-3.97a2.306,2.306,0,0,1,2.806-3.661l3.362,2.578,7.943-10.363a2.305,2.305,0,0,1,3.232-.427h0l-.049.068.051-.068a2.308,2.308,0,0,1,.426,3.233L377.834,382a2.307,2.307,0,0,1-1.834.9Z" transform="translate(2804.977 1340.857)" fill="#6c63ff"/>
    <path id="Path_395-2" data-name="Path 395" d="M483,445.9a2.29,2.29,0,0,1-1.378-.458l-.025-.019-5.19-3.97a2.306,2.306,0,0,1,2.806-3.661l3.362,2.578,7.944-10.363a2.305,2.305,0,0,1,3.232-.427h0l-.049.068.051-.068a2.308,2.308,0,0,1,.427,3.233L484.834,445a2.306,2.306,0,0,1-1.834.9Z" transform="translate(2734.084 1299.115)" fill="#6c63ff"/>
    <path id="Path_395-3" data-name="Path 395" d="M584,382.9a2.291,2.291,0,0,1-1.378-.458l-.025-.019-5.19-3.97a2.306,2.306,0,1,1,2.806-3.661l3.362,2.578,7.943-10.363a2.305,2.305,0,0,1,3.232-.427h0l-.049.068.051-.068a2.308,2.308,0,0,1,.427,3.233L585.834,382a2.307,2.307,0,0,1-1.835.9Z" transform="translate(2667.164 1340.857)" fill="#6c63ff"/>
  </g>
</svg>
